<?xml version="1.0" encoding="utf-8"?>
<!-- Generator: Adobe Illustrator 25.4.1, SVG Export Plug-In . SVG Version: 6.00 Build 0)  -->
<svg version="1.1" id="图层_1" xmlns="http://www.w3.org/2000/svg" xmlns:xlink="http://www.w3.org/1999/xlink" x="0px" y="0px"
	 viewBox="0 0 780.34 586.77" style="enable-background:new 0 0 780.34 586.77;" xml:space="preserve">
<style type="text/css">
	.st0{fill:#FFFFFF;}
	.st1{fill:none;}
	.st2{fill:none;stroke:#000000;stroke-width:1.07;stroke-linejoin:round;stroke-miterlimit:10;}
	.st3{fill:#4D4D4D;}
	.st4{font-family:'ArialMT';}
	.st5{font-size:9px;}
	.st6{fill:none;stroke:#333333;stroke-width:1.07;stroke-linejoin:round;stroke-miterlimit:10;}
	.st7{font-size:11px;}
	.st8{fill:#F8766D;}
	.st9{fill:#EC823C;}
	.st10{fill:#DD8D00;}
	.st11{fill:#CA9700;}
	.st12{fill:#B3A000;}
	.st13{fill:#97A900;}
	.st14{fill:#71B000;}
	.st15{fill:#2FB600;}
	.st16{fill:#00BB4B;}
	.st17{fill:#00BF76;}
	.st18{fill:#00C098;}
	.st19{fill:#00C0B7;}
	.st20{fill:#00BDD1;}
	.st21{fill:#00B7E8;}
	.st22{fill:#00AEFA;}
	.st23{fill:#3DA1FF;}
	.st24{fill:#8F91FF;}
	.st25{fill:#BE80FF;}
	.st26{fill:#DE71F9;}
	.st27{fill:#F265E7;}
	.st28{fill:#FE61CF;}
	.st29{fill:#FF64B3;}
	.st30{fill:#FF6C92;}
	.st31{letter-spacing:-1;}
</style>
<rect x="-1.96" y="3.24" class="st0" width="782.3" height="583.53"/>
<rect x="58.55" y="5.4" class="st1" width="119.52" height="538.61"/>
<line class="st2" x1="58.55" y1="544.01" x2="58.55" y2="5.4"/>
<text transform="matrix(1 0 0 1 48.6054 522.7595)" class="st3 st4 st5">0</text>
<text transform="matrix(1 0 0 1 43.6054 391.1295)" class="st3 st4 st5">25</text>
<text transform="matrix(1 0 0 1 43.6054 259.5094)" class="st3 st4 st5">50</text>
<text transform="matrix(1 0 0 1 43.6054 127.8796)" class="st3 st4 st5">75</text>
<line class="st6" x1="55.81" y1="519.53" x2="58.55" y2="519.53"/>
<line class="st6" x1="55.81" y1="387.9" x2="58.55" y2="387.9"/>
<line class="st6" x1="55.81" y1="256.28" x2="58.55" y2="256.28"/>
<line class="st6" x1="55.81" y1="124.65" x2="58.55" y2="124.65"/>
<line class="st2" x1="58.55" y1="544.01" x2="178.06" y2="544.01"/>
<line class="st6" x1="61.64" y1="546.75" x2="61.64" y2="544.01"/>
<line class="st6" x1="66.79" y1="546.75" x2="66.79" y2="544.01"/>
<line class="st6" x1="71.94" y1="546.75" x2="71.94" y2="544.01"/>
<line class="st6" x1="77.09" y1="546.75" x2="77.09" y2="544.01"/>
<line class="st6" x1="82.24" y1="546.75" x2="82.24" y2="544.01"/>
<line class="st6" x1="87.4" y1="546.75" x2="87.4" y2="544.01"/>
<line class="st6" x1="92.55" y1="546.75" x2="92.55" y2="544.01"/>
<line class="st6" x1="97.7" y1="546.75" x2="97.7" y2="544.01"/>
<line class="st6" x1="102.85" y1="546.75" x2="102.85" y2="544.01"/>
<line class="st6" x1="108" y1="546.75" x2="108" y2="544.01"/>
<line class="st6" x1="113.15" y1="546.75" x2="113.15" y2="544.01"/>
<line class="st6" x1="118.31" y1="546.75" x2="118.31" y2="544.01"/>
<line class="st6" x1="123.46" y1="546.75" x2="123.46" y2="544.01"/>
<line class="st6" x1="128.61" y1="546.75" x2="128.61" y2="544.01"/>
<line class="st6" x1="133.76" y1="546.75" x2="133.76" y2="544.01"/>
<line class="st6" x1="138.91" y1="546.75" x2="138.91" y2="544.01"/>
<line class="st6" x1="144.06" y1="546.75" x2="144.06" y2="544.01"/>
<line class="st6" x1="149.22" y1="546.75" x2="149.22" y2="544.01"/>
<line class="st6" x1="154.37" y1="546.75" x2="154.37" y2="544.01"/>
<line class="st6" x1="159.52" y1="546.75" x2="159.52" y2="544.01"/>
<line class="st6" x1="164.67" y1="546.75" x2="164.67" y2="544.01"/>
<line class="st6" x1="169.82" y1="546.75" x2="169.82" y2="544.01"/>
<line class="st6" x1="174.97" y1="546.75" x2="174.97" y2="544.01"/>
<text transform="matrix(1 0 0 1 58.6352 555.4001)" class="st3 st4 st5">A</text>
<text transform="matrix(1 0 0 1 63.7855 555.4001)" class="st3 st4 st5">B</text>
<text transform="matrix(1 0 0 1 68.6854 555.4001)" class="st3 st4 st5">C</text>
<text transform="matrix(1 0 0 1 73.8353 555.4001)" class="st3 st4 st5">D</text>
<text transform="matrix(1 0 0 1 79.2352 555.4001)" class="st3 st4 st5">E</text>
<text transform="matrix(1 0 0 1 84.6454 555.4001)" class="st3 st4 st5">F</text>
<text transform="matrix(1 0 0 1 89.0453 555.4001)" class="st3 st4 st5">G</text>
<text transform="matrix(1 0 0 1 94.4452 555.4001)" class="st3 st4 st5">H</text>
<text transform="matrix(1 0 0 1 101.5951 555.4001)" class="st3 st4 st5">I</text>
<text transform="matrix(1 0 0 1 105.7455 555.4001)" class="st3 st4 st5">J</text>
<text transform="matrix(1 0 0 1 110.1454 555.4001)" class="st3 st4 st5">K</text>
<text transform="matrix(1 0 0 1 115.7953 555.4001)" class="st3 st4 st5">L</text>
<text transform="matrix(1 0 0 1 119.7055 555.4001)" class="st3 st4 st5">M</text>
<text transform="matrix(1 0 0 1 125.1054 555.4001)" class="st3 st4 st5">O</text>
<text transform="matrix(1 0 0 1 130.7553 555.4001)" class="st3 st4 st5">P</text>
<text transform="matrix(1 0 0 1 135.4052 555.4001)" class="st3 st4 st5">Q</text>
<text transform="matrix(1 0 0 1 140.8056 555.4001)" class="st3 st4 st5">R</text>
<text transform="matrix(1 0 0 1 146.2055 555.4001)" class="st3 st4 st5">S</text>
<text transform="matrix(1 0 0 1 151.6151 555.4001)" class="st3 st4 st5">T</text>
<text transform="matrix(1 0 0 1 156.2655 555.4001)" class="st3 st4 st5">U</text>
<text transform="matrix(1 0 0 1 161.6654 555.4001)" class="st3 st4 st5">V</text>
<text transform="matrix(1 0 0 1 166.8153 555.4001)" class="st3 st4 st5">Y</text>
<text transform="matrix(1 0 0 1 172.2152 555.4001)" class="st3 st4 st5">Z</text>
<text transform="matrix(1 0 0 1 81.9252 568.0192)" class="st4 st7">Function Class</text>
<text transform="matrix(-6.123234e-17 -1 1 -6.123234e-17 38.4451 316.8891)" class="st4 st7">Number of genes</text>
<rect x="189.02" y="157.64" class="st0" width="550.57" height="234.12"/>
<text transform="matrix(1 0 0 1 194.4955 172.2297)" class="st4 st7">Group</text>
<rect x="195.21" y="179.63" class="st8" width="15.86" height="15.86"/>
<rect x="195.21" y="196.91" class="st9" width="15.86" height="15.86"/>
<rect x="195.21" y="214.19" class="st10" width="15.86" height="15.86"/>
<rect x="195.21" y="231.47" class="st11" width="15.86" height="15.86"/>
<rect x="195.21" y="248.75" class="st12" width="15.86" height="15.86"/>
<rect x="195.21" y="266.03" class="st13" width="15.86" height="15.86"/>
<rect x="195.21" y="283.31" class="st14" width="15.86" height="15.86"/>
<rect x="195.21" y="300.59" class="st15" width="15.86" height="15.86"/>
<rect x="195.21" y="317.87" class="st16" width="15.86" height="15.86"/>
<rect x="195.21" y="335.15" class="st17" width="15.86" height="15.86"/>
<rect x="195.21" y="352.43" class="st18" width="15.86" height="15.86"/>
<rect x="195.21" y="369.71" class="st19" width="15.86" height="15.86"/>
<rect x="455.21" y="179.63" class="st20" width="15.86" height="15.86"/>
<rect x="455.21" y="196.91" class="st21" width="15.86" height="15.86"/>
<rect x="455.21" y="214.19" class="st22" width="15.86" height="15.86"/>
<rect x="455.21" y="231.47" class="st23" width="15.86" height="15.86"/>
<rect x="455.21" y="248.75" class="st24" width="15.86" height="15.86"/>
<rect x="455.21" y="266.03" class="st25" width="15.86" height="15.86"/>
<rect x="455.21" y="283.31" class="st26" width="15.86" height="15.86"/>
<rect x="455.21" y="300.59" class="st27" width="15.86" height="15.86"/>
<rect x="455.21" y="317.87" class="st28" width="15.86" height="15.86"/>
<rect x="455.21" y="335.15" class="st29" width="15.86" height="15.86"/>
<rect x="455.21" y="352.43" class="st30" width="15.86" height="15.86"/>
<text transform="matrix(1 0 0 1 217.2553 190.7897)" class="st4 st5">A|RNA processing and modification</text>
<text transform="matrix(1 0 0 1 217.2553 208.0695)"><tspan x="0" y="0" class="st4 st5">B|Chromatin st</tspan><tspan x="59.36" y="0" class="st4 st5">r</tspan><tspan x="62.48" y="0" class="st4 st5">ucture and dynamics</tspan></text>
<text transform="matrix(1 0 0 1 217.2553 225.3498)"><tspan x="0" y="0" class="st4 st5">C|Energy production and co</tspan><tspan x="111.41" y="0" class="st4 st5">n</tspan><tspan x="116.23" y="0" class="st4 st5">v</tspan><tspan x="120.52" y="0" class="st4 st5">ersion</tspan></text>
<text transform="matrix(1 0 0 1 217.2553 242.6296)"><tspan x="0" y="0" class="st4 st5">D|Cell cycle control, cell division, chromosome pa</tspan><tspan x="197.41" y="0" class="st4 st5">r</tspan><tspan x="200.76" y="0" class="st4 st5">titioning</tspan></text>
<text transform="matrix(1 0 0 1 217.2553 259.9098)"><tspan x="0" y="0" class="st4 st5">E|Amino acid t</tspan><tspan x="57.86" y="0" class="st4 st5">r</tspan><tspan x="60.77" y="0" class="st4 st5">anspo</tspan><tspan x="85.29" y="0" class="st4 st5">r</tspan><tspan x="88.64" y="0" class="st4 st5">t and metabolism</tspan></text>
<text transform="matrix(1 0 0 1 217.2553 277.1896)"><tspan x="0" y="0" class="st4 st5">F|Nucleotide t</tspan><tspan x="55.36" y="0" class="st4 st5">r</tspan><tspan x="58.27" y="0" class="st4 st5">anspo</tspan><tspan x="82.79" y="0" class="st4 st5">r</tspan><tspan x="86.14" y="0" class="st4 st5">t and metabolism</tspan></text>
<text transform="matrix(1 0 0 1 217.2553 294.4694)"><tspan x="0" y="0" class="st4 st5">G|Carbo</tspan><tspan x="33.85" y="0" class="st4 st5">h</tspan><tspan x="38.59" y="0" class="st4 st5">yd</tspan><tspan x="48.09" y="0" class="st4 st5">r</tspan><tspan x="51" y="0" class="st4 st5">ate t</tspan><tspan x="68.51" y="0" class="st4 st5">r</tspan><tspan x="71.42" y="0" class="st4 st5">anspo</tspan><tspan x="95.94" y="0" class="st4 st5">r</tspan><tspan x="99.29" y="0" class="st4 st5">t and metabolism</tspan></text>
<text transform="matrix(1 0 0 1 217.2553 311.7497)"><tspan x="0" y="0" class="st4 st5">H|Coenzyme t</tspan><tspan x="56.86" y="0" class="st4 st5">r</tspan><tspan x="59.76" y="0" class="st4 st5">anspo</tspan><tspan x="84.29" y="0" class="st4 st5">r</tspan><tspan x="87.63" y="0" class="st4 st5">t and metabolism</tspan></text>
<text transform="matrix(1 0 0 1 217.2553 329.0299)"><tspan x="0" y="0" class="st4 st5">I|Lipid t</tspan><tspan x="28.85" y="0" class="st4 st5">r</tspan><tspan x="31.76" y="0" class="st4 st5">anspo</tspan><tspan x="56.28" y="0" class="st4 st5">r</tspan><tspan x="59.63" y="0" class="st4 st5">t and metabolism</tspan></text>
<text transform="matrix(1 0 0 1 217.2553 346.3092)"><tspan x="0" y="0" class="st4 st5">J|</tspan><tspan x="6.84" y="0" class="st4 st5 st31">T</tspan><tspan x="11.26" y="0" class="st4 st5">r</tspan><tspan x="14.17" y="0" class="st4 st5">anslation, </tspan><tspan x="55.2" y="0" class="st4 st5">r</tspan><tspan x="58.32" y="0" class="st4 st5">ibosomal st</tspan><tspan x="103.84" y="0" class="st4 st5">r</tspan><tspan x="106.96" y="0" class="st4 st5">ucture and biogenesis</tspan></text>
<text transform="matrix(1 0 0 1 217.2553 363.5895)"><tspan x="0" y="0" class="st4 st5">K|</tspan><tspan x="8.34" y="0" class="st4 st5 st31">T</tspan><tspan x="12.77" y="0" class="st4 st5">r</tspan><tspan x="15.67" y="0" class="st4 st5">ansc</tspan><tspan x="34.69" y="0" class="st4 st5">r</tspan><tspan x="37.81" y="0" class="st4 st5">iption</tspan></text>
<text transform="matrix(1 0 0 1 217.2553 380.8698)" class="st4 st5">L|Replication, recombination and repair</text>
<text transform="matrix(1 0 0 1 477.2558 190.7897)"><tspan x="0" y="0" class="st4 st5">M|Cell </tspan><tspan x="27.84" y="0" class="st4 st5">w</tspan><tspan x="34.2" y="0" class="st4 st5">all/memb</tspan><tspan x="70.71" y="0" class="st4 st5">r</tspan><tspan x="73.62" y="0" class="st4 st5">ane/e</tspan><tspan x="96.14" y="0" class="st4 st5">n</tspan><tspan x="100.97" y="0" class="st4 st5">v</tspan><tspan x="105.25" y="0" class="st4 st5">elope biogenesis</tspan></text>
<text transform="matrix(1 0 0 1 477.2558 208.0695)"><tspan x="0" y="0" class="st4 st5">O|</tspan><tspan x="9.34" y="0" class="st4 st5">P</tspan><tspan x="14.89" y="0" class="st4 st5">ostt</tspan><tspan x="29.4" y="0" class="st4 st5">r</tspan><tspan x="32.3" y="0" class="st4 st5">anslational modification, protein tu</tspan><tspan x="168.39" y="0" class="st4 st5">r</tspan><tspan x="171.6" y="0" class="st4 st5">n</tspan><tspan x="176.6" y="0" class="st4 st5">o</tspan><tspan x="181.47" y="0" class="st4 st5">v</tspan><tspan x="185.75" y="0" class="st4 st5">e</tspan><tspan x="190.75" y="0" class="st4 st5">r</tspan><tspan x="193.3" y="0" class="st4 st5">, chaperones</tspan></text>
<text transform="matrix(1 0 0 1 477.2558 225.3498)"><tspan x="0" y="0" class="st4 st5">P|Inorganic ion t</tspan><tspan x="64.88" y="0" class="st4 st5">r</tspan><tspan x="67.78" y="0" class="st4 st5">anspo</tspan><tspan x="92.3" y="0" class="st4 st5">r</tspan><tspan x="95.65" y="0" class="st4 st5">t and metabolism</tspan></text>
<text transform="matrix(1 0 0 1 477.2558 242.6296)"><tspan x="0" y="0" class="st4 st5">Q|Seconda</tspan><tspan x="44.87" y="0" class="st4 st5">r</tspan><tspan x="48.13" y="0" class="st4 st5">y metabolites biosynthesi</tspan><tspan x="148.68" y="0" class="st4 st5">s</tspan><tspan x="153.04" y="0" class="st4 st5">, t</tspan><tspan x="160.54" y="0" class="st4 st5">r</tspan><tspan x="163.45" y="0" class="st4 st5">anspo</tspan><tspan x="187.97" y="0" class="st4 st5">r</tspan><tspan x="191.32" y="0" class="st4 st5">t and catabolism</tspan></text>
<text transform="matrix(1 0 0 1 477.2558 259.9098)"><tspan x="0" y="0" class="st4 st5">R|Gene</tspan><tspan x="30.85" y="0" class="st4 st5">r</tspan><tspan x="33.76" y="0" class="st4 st5">al function prediction only</tspan></text>
<text transform="matrix(1 0 0 1 477.2558 277.1896)"><tspan x="0" y="0" class="st4 st5">S|Function unkn</tspan><tspan x="64.88" y="0" class="st4 st5">o</tspan><tspan x="69.75" y="0" class="st4 st5">wn</tspan></text>
<text transform="matrix(1 0 0 1 477.2558 294.4694)"><tspan x="0" y="0" class="st4 st5">T|Signal t</tspan><tspan x="37.85" y="0" class="st4 st5">r</tspan><tspan x="40.76" y="0" class="st4 st5">ansduction mechanisms</tspan></text>
<text transform="matrix(1 0 0 1 477.2558 311.7497)"><tspan x="0" y="0" class="st4 st5">U|Int</tspan><tspan x="18.84" y="0" class="st4 st5">r</tspan><tspan x="21.75" y="0" class="st4 st5">acellular t</tspan><tspan x="60.27" y="0" class="st4 st5">r</tspan><tspan x="63.18" y="0" class="st4 st5">afficking, secretion, and </tspan><tspan x="160.23" y="0" class="st4 st5">v</tspan><tspan x="164.51" y="0" class="st4 st5">esicular t</tspan><tspan x="200.53" y="0" class="st4 st5">r</tspan><tspan x="203.43" y="0" class="st4 st5">anspo</tspan><tspan x="227.96" y="0" class="st4 st5">r</tspan><tspan x="231.3" y="0" class="st4 st5">t</tspan></text>
<text transform="matrix(1 0 0 1 477.2558 329.0299)"><tspan x="0" y="0" class="st4 st5">V|De</tspan><tspan x="19.85" y="0" class="st4 st5">f</tspan><tspan x="22.08" y="0" class="st4 st5">ense mechanisms</tspan></text>
<text transform="matrix(1 0 0 1 477.2558 346.3092)"><tspan x="0" y="0" class="st4 st5">Y|Nuclear st</tspan><tspan x="48.85" y="0" class="st4 st5">r</tspan><tspan x="51.98" y="0" class="st4 st5">ucture</tspan></text>
<text transform="matrix(1 0 0 1 477.2558 363.5895)"><tspan x="0" y="0" class="st4 st5">Z|Cytos</tspan><tspan x="30.84" y="0" class="st4 st5">k</tspan><tspan x="35.17" y="0" class="st4 st5">eleton</tspan></text>
</svg>
